# xmcd CD database file
#
# Track frame offsets:
#	150
#	12745
#	26727
#	41275
#	59712
#	77097
#	102102
#	120520
#	133140
#	153757
#
# Disc length: 2196 seconds
#
# Revision: 0
# Processed by: cddbd v1.5.1PL2 Copyright (c) Steve Scherf et al.
# Submitted via: CDex 1.51
#
DISCID=7d08920a
DTITLE=上松美香 - POESIA Mika Agematsu SPECIAL SAMPLER
DYEAR=2001
DGENRE=Instrumental
TTITLE0=花
TTITLE1=埴生の宿
TTITLE2=夏の思い出
TTITLE3=早春賦
TTITLE4=浜辺の歌
TTITLE5=カスカーダ
TTITLE6=ミス・ノーチェス・シン・ティ
TTITLE7=天使のささやき
TTITLE8=白い鳥
TTITLE9=コーヒー・ルンバ
EXTD=YEAR: 2001
EXTT0=
EXTT1=
EXTT2=
EXTT3=
EXTT4=
EXTT5=
EXTT6=
EXTT7=
EXTT8=
EXTT9=
PLAYORDER=
